<svg xmlns="http://www.w3.org/2000/svg" viewBox="0 0 1307.56 1886.52"><defs><style>.cls-1{fill:#cfdbd5;}</style></defs><title>Asset 3</title><g id="Layer_2" data-name="Layer 2"><g id="Layer_1-2" data-name="Layer 1"><path class="cls-1" d="M430.07,941.85H429L864.75,506.11a50.63,50.63,0,0,0,14.81-35.77V287.8A50.63,50.63,0,0,0,864.75,252L627.63,14.92c-31.87-31.87-86.35-9.3-86.35,35.76V357.42a50.58,50.58,0,0,1-14.82,35.77L14.82,904.83a50.59,50.59,0,0,0,0,71.55L279.3,1240.72a50.59,50.59,0,0,0,71.53,0L504.1,1087.42a50.59,50.59,0,0,0,0-71.54Z"/><path class="cls-1" d="M877.49,944.67h1.07L442.82,1380.42A50.55,50.55,0,0,0,428,1416.18v182.54a50.58,50.58,0,0,0,14.82,35.77l237.11,237.12c31.87,31.86,86.35,9.29,86.35-35.77V1529.1a50.59,50.59,0,0,1,14.82-35.77l511.65-511.64a50.6,50.6,0,0,0,0-71.55L1028.26,645.81a50.57,50.57,0,0,0-71.52,0L803.46,799.11a50.58,50.58,0,0,0,0,71.53Z"/></g></g></svg>